<mxfile host="app.diagrams.net" modified="2024-02-26T13:58:12.047Z" agent="Mozilla/5.0 (X11; Ubuntu; Linux x86_64; rv:123.0) Gecko/20100101 Firefox/123.0" etag="lFmGfAypg_aJTHrIIOyH" version="23.1.6" type="github">
  <diagram name="Page-1" id="Iadwp5vnDS-L7j4FudB4">
    <mxGraphModel dx="840" dy="1136" grid="1" gridSize="10" guides="1" tooltips="1" connect="1" arrows="1" fold="1" page="1" pageScale="1" pageWidth="850" pageHeight="1100" math="0" shadow="0">
      <root>
        <mxCell id="0" />
        <mxCell id="1" parent="0" />
        <mxCell id="Hp5rvFKC87eFpsHqNjEy-14" style="edgeStyle=none;rounded=0;orthogonalLoop=1;jettySize=auto;html=1;exitX=0.5;exitY=0;exitDx=0;exitDy=0;entryX=0.5;entryY=1;entryDx=0;entryDy=0;strokeColor=default;align=center;verticalAlign=middle;fontFamily=Helvetica;fontSize=11;fontColor=default;labelBackgroundColor=default;endArrow=none;endFill=0;" edge="1" parent="1" source="Hp5rvFKC87eFpsHqNjEy-1" target="Hp5rvFKC87eFpsHqNjEy-9">
          <mxGeometry relative="1" as="geometry" />
        </mxCell>
        <mxCell id="Hp5rvFKC87eFpsHqNjEy-19" style="edgeStyle=none;rounded=0;orthogonalLoop=1;jettySize=auto;html=1;exitX=1;exitY=0.5;exitDx=0;exitDy=0;entryX=0;entryY=0.5;entryDx=0;entryDy=0;strokeColor=default;align=center;verticalAlign=middle;fontFamily=Helvetica;fontSize=11;fontColor=default;labelBackgroundColor=default;endArrow=none;endFill=0;" edge="1" parent="1" source="Hp5rvFKC87eFpsHqNjEy-1" target="Hp5rvFKC87eFpsHqNjEy-16">
          <mxGeometry relative="1" as="geometry" />
        </mxCell>
        <mxCell id="Hp5rvFKC87eFpsHqNjEy-1" value="Automovil" style="rounded=0;whiteSpace=wrap;html=1;" vertex="1" parent="1">
          <mxGeometry x="420" y="610" width="120" height="60" as="geometry" />
        </mxCell>
        <mxCell id="Hp5rvFKC87eFpsHqNjEy-10" style="rounded=0;orthogonalLoop=1;jettySize=auto;html=1;exitX=0.5;exitY=1;exitDx=0;exitDy=0;entryX=0.5;entryY=0;entryDx=0;entryDy=0;endArrow=none;endFill=0;" edge="1" parent="1" source="Hp5rvFKC87eFpsHqNjEy-2" target="Hp5rvFKC87eFpsHqNjEy-7">
          <mxGeometry relative="1" as="geometry" />
        </mxCell>
        <mxCell id="Hp5rvFKC87eFpsHqNjEy-2" value="Cliente" style="rounded=0;whiteSpace=wrap;html=1;" vertex="1" parent="1">
          <mxGeometry x="180" y="260" width="120" height="60" as="geometry" />
        </mxCell>
        <mxCell id="Hp5rvFKC87eFpsHqNjEy-12" style="edgeStyle=none;rounded=0;orthogonalLoop=1;jettySize=auto;html=1;exitX=0.5;exitY=1;exitDx=0;exitDy=0;entryX=0.5;entryY=0;entryDx=0;entryDy=0;strokeColor=default;align=center;verticalAlign=middle;fontFamily=Helvetica;fontSize=11;fontColor=default;labelBackgroundColor=default;endArrow=none;endFill=0;" edge="1" parent="1" source="Hp5rvFKC87eFpsHqNjEy-3" target="Hp5rvFKC87eFpsHqNjEy-8">
          <mxGeometry relative="1" as="geometry" />
        </mxCell>
        <mxCell id="Hp5rvFKC87eFpsHqNjEy-3" value="Reserva" style="rounded=0;whiteSpace=wrap;html=1;" vertex="1" parent="1">
          <mxGeometry x="180" y="480" width="120" height="60" as="geometry" />
        </mxCell>
        <mxCell id="Hp5rvFKC87eFpsHqNjEy-5" value="Agencia" style="rounded=0;whiteSpace=wrap;html=1;" vertex="1" parent="1">
          <mxGeometry x="420" y="340" width="120" height="60" as="geometry" />
        </mxCell>
        <mxCell id="Hp5rvFKC87eFpsHqNjEy-6" value="Celda garaje" style="rounded=0;whiteSpace=wrap;html=1;" vertex="1" parent="1">
          <mxGeometry x="660" y="480" width="120" height="60" as="geometry" />
        </mxCell>
        <mxCell id="Hp5rvFKC87eFpsHqNjEy-11" style="edgeStyle=none;rounded=0;orthogonalLoop=1;jettySize=auto;html=1;exitX=0.5;exitY=1;exitDx=0;exitDy=0;entryX=0.5;entryY=0;entryDx=0;entryDy=0;strokeColor=default;align=center;verticalAlign=middle;fontFamily=Helvetica;fontSize=11;fontColor=default;labelBackgroundColor=default;endArrow=none;endFill=0;" edge="1" parent="1" source="Hp5rvFKC87eFpsHqNjEy-7" target="Hp5rvFKC87eFpsHqNjEy-3">
          <mxGeometry relative="1" as="geometry" />
        </mxCell>
        <mxCell id="Hp5rvFKC87eFpsHqNjEy-7" value="Realiza" style="rhombus;whiteSpace=wrap;html=1;" vertex="1" parent="1">
          <mxGeometry x="200" y="360" width="80" height="80" as="geometry" />
        </mxCell>
        <mxCell id="Hp5rvFKC87eFpsHqNjEy-13" style="edgeStyle=none;rounded=0;orthogonalLoop=1;jettySize=auto;html=1;exitX=1;exitY=0.5;exitDx=0;exitDy=0;entryX=0;entryY=0.5;entryDx=0;entryDy=0;strokeColor=default;align=center;verticalAlign=middle;fontFamily=Helvetica;fontSize=11;fontColor=default;labelBackgroundColor=default;endArrow=none;endFill=0;" edge="1" parent="1" source="Hp5rvFKC87eFpsHqNjEy-8" target="Hp5rvFKC87eFpsHqNjEy-1">
          <mxGeometry relative="1" as="geometry" />
        </mxCell>
        <mxCell id="Hp5rvFKC87eFpsHqNjEy-8" value="De" style="rhombus;whiteSpace=wrap;html=1;" vertex="1" parent="1">
          <mxGeometry x="200" y="600" width="80" height="80" as="geometry" />
        </mxCell>
        <mxCell id="Hp5rvFKC87eFpsHqNjEy-17" style="edgeStyle=none;rounded=0;orthogonalLoop=1;jettySize=auto;html=1;exitX=0.5;exitY=0;exitDx=0;exitDy=0;entryX=0.5;entryY=1;entryDx=0;entryDy=0;strokeColor=default;align=center;verticalAlign=middle;fontFamily=Helvetica;fontSize=11;fontColor=default;labelBackgroundColor=default;endArrow=none;endFill=0;" edge="1" parent="1" source="Hp5rvFKC87eFpsHqNjEy-9" target="Hp5rvFKC87eFpsHqNjEy-5">
          <mxGeometry relative="1" as="geometry" />
        </mxCell>
        <mxCell id="Hp5rvFKC87eFpsHqNjEy-9" value="Pertenece" style="rhombus;whiteSpace=wrap;html=1;" vertex="1" parent="1">
          <mxGeometry x="440" y="440" width="80" height="80" as="geometry" />
        </mxCell>
        <mxCell id="Hp5rvFKC87eFpsHqNjEy-20" style="edgeStyle=none;rounded=0;orthogonalLoop=1;jettySize=auto;html=1;exitX=0.5;exitY=0;exitDx=0;exitDy=0;entryX=0.5;entryY=1;entryDx=0;entryDy=0;strokeColor=default;align=center;verticalAlign=middle;fontFamily=Helvetica;fontSize=11;fontColor=default;labelBackgroundColor=default;endArrow=none;endFill=0;" edge="1" parent="1" source="Hp5rvFKC87eFpsHqNjEy-16" target="Hp5rvFKC87eFpsHqNjEy-6">
          <mxGeometry relative="1" as="geometry" />
        </mxCell>
        <mxCell id="Hp5rvFKC87eFpsHqNjEy-16" value="Se guarda en" style="rhombus;whiteSpace=wrap;html=1;fontFamily=Helvetica;fontSize=11;fontColor=default;labelBackgroundColor=default;" vertex="1" parent="1">
          <mxGeometry x="680" y="600" width="80" height="80" as="geometry" />
        </mxCell>
        <mxCell id="Hp5rvFKC87eFpsHqNjEy-22" value="1:M" style="text;html=1;align=center;verticalAlign=middle;resizable=0;points=[];autosize=1;strokeColor=none;fillColor=none;fontFamily=Helvetica;fontSize=11;fontColor=default;labelBackgroundColor=default;" vertex="1" parent="1">
          <mxGeometry x="520" y="465" width="40" height="30" as="geometry" />
        </mxCell>
        <mxCell id="Hp5rvFKC87eFpsHqNjEy-23" value="1:1" style="text;html=1;align=center;verticalAlign=middle;resizable=0;points=[];autosize=1;strokeColor=none;fillColor=none;fontFamily=Helvetica;fontSize=11;fontColor=default;labelBackgroundColor=default;" vertex="1" parent="1">
          <mxGeometry x="640" y="600" width="40" height="30" as="geometry" />
        </mxCell>
        <mxCell id="Hp5rvFKC87eFpsHqNjEy-24" value="1:M" style="text;html=1;align=center;verticalAlign=middle;resizable=0;points=[];autosize=1;strokeColor=none;fillColor=none;fontFamily=Helvetica;fontSize=11;fontColor=default;labelBackgroundColor=default;" vertex="1" parent="1">
          <mxGeometry x="280" y="385" width="40" height="30" as="geometry" />
        </mxCell>
        <mxCell id="Hp5rvFKC87eFpsHqNjEy-25" value="1:M" style="text;html=1;align=center;verticalAlign=middle;resizable=0;points=[];autosize=1;strokeColor=none;fillColor=none;fontFamily=Helvetica;fontSize=11;fontColor=default;labelBackgroundColor=default;" vertex="1" parent="1">
          <mxGeometry x="280" y="600" width="40" height="30" as="geometry" />
        </mxCell>
      </root>
    </mxGraphModel>
  </diagram>
</mxfile>
